<svg width="499" height="440" viewBox="0 0 499 440" fill="none" xmlns="http://www.w3.org/2000/svg">
<path fill-rule="evenodd" clip-rule="evenodd" d="M249 -48C110.875 -48 -1 63.875 -1 202C-1 312.625 70.5625 406.063 169.937 439.188C182.437 441.375 187.125 433.875 187.125 427.313C187.125 421.375 186.813 401.688 186.813 380.75C124 392.313 107.75 365.437 102.75 351.375C99.9375 344.187 87.75 322 77.125 316.062C68.375 311.375 55.875 299.812 76.8125 299.5C96.5 299.187 110.563 317.625 115.25 325.125C137.75 362.937 173.688 352.313 188.063 345.75C190.25 329.5 196.812 318.562 204 312.312C148.375 306.062 90.25 284.5 90.25 188.875C90.25 161.687 99.9375 139.187 115.875 121.687C113.375 115.437 104.625 89.8125 118.375 55.4375C118.375 55.4375 139.313 48.875 187.125 81.0625C207.125 75.4375 228.375 72.625 249.625 72.625C270.875 72.625 292.125 75.4375 312.125 81.0625C359.938 48.5625 380.875 55.4375 380.875 55.4375C394.625 89.8125 385.875 115.437 383.375 121.687C399.313 139.187 409 161.375 409 188.875C409 284.812 350.563 306.062 294.938 312.312C304 320.125 311.813 335.125 311.813 358.563C311.813 392 311.5 418.875 311.5 427.313C311.5 433.875 316.188 441.688 328.688 439.188C378.317 422.433 421.443 390.537 451.995 347.988C482.547 305.44 498.987 254.381 499 202C499 63.875 387.125 -48 249 -48Z" fill="#CCCCCC" fill-opacity="0.48"/>
</svg>
